<?xml version="1.0" encoding="iso-8859-1"?>
<!-- Generator: Adobe Illustrator 19.0.0, SVG Export Plug-In . SVG Version: 6.00 Build 0)  -->
<svg version="1.1" id="Capa_1" xmlns="http://www.w3.org/2000/svg" xmlns:xlink="http://www.w3.org/1999/xlink" x="0px" y="0px"
	 viewBox="0 0 512 512" style="enable-background:new 0 0 512 512;" xml:space="preserve">
<g>
	<g transform="translate(1 1)">
		<path style="fill:#607D8B;" d="M400.067,101.4v349.867c0.022,9.368-7.528,16.995-16.896,17.067H58.563
			c-4.505-0.02-8.816-1.83-11.986-5.031c-3.169-3.201-4.936-7.531-4.91-12.036V24.6c-0.025-4.505,1.741-8.834,4.91-12.036
			s7.481-5.011,11.986-5.031H306.2L400.067,101.4z"/>
		<path style="fill:#CFD8DC;" d="M374.467,101.4v349.867c0.022,9.368-7.528,16.995-16.896,17.067H58.563
			c-4.505-0.02-8.816-1.83-11.986-5.031c-3.169-3.201-4.936-7.531-4.91-12.036V24.6c-0.025-4.505,1.741-8.834,4.91-12.036
			s7.481-5.011,11.986-5.031H280.6L374.467,101.4z"/>
		<path style="fill:#607D8B;" d="M400.067,101.4h-76.8c-9.414-0.028-17.039-7.653-17.067-17.067v-76.8L400.067,101.4z"/>
		<g>
			<path style="fill:#FFEB3A;" d="M101.4,67.267h17.067c9.426,0,17.067,7.641,17.067,17.067V101.4
				c0,9.426-7.641,17.067-17.067,17.067H101.4c-9.426,0-17.067-7.641-17.067-17.067V84.333
				C84.333,74.908,91.974,67.267,101.4,67.267z"/>
			<path style="fill:#FFEB3A;" d="M101.4,152.6h17.067c9.426,0,17.067,7.641,17.067,17.067v17.067
				c0,9.426-7.641,17.067-17.067,17.067H101.4c-9.426,0-17.067-7.641-17.067-17.067v-17.067
				C84.333,160.241,91.974,152.6,101.4,152.6z"/>
			<path style="fill:#FFEB3A;" d="M186.733,152.6h76.8c9.426,0,17.067,7.641,17.067,17.067l0,0c0,9.426-7.641,17.067-17.067,17.067
				h-76.8c-9.426,0-17.067-7.641-17.067-17.067l0,0C169.667,160.241,177.308,152.6,186.733,152.6z"/>
			<path style="fill:#FFEB3A;" d="M186.733,67.267H255c9.426,0,17.067,7.641,17.067,17.067l0,0c0,9.426-7.641,17.067-17.067,17.067
				h-68.267c-9.426,0-17.067-7.641-17.067-17.067l0,0C169.667,74.908,177.308,67.267,186.733,67.267z"/>
			<path style="fill:#FFEB3A;" d="M186.733,237.933H280.6c9.426,0,17.067,7.641,17.067,17.067l0,0
				c0,9.426-7.641,17.067-17.067,17.067h-93.867c-9.426,0-17.067-7.641-17.067-17.067l0,0
				C169.667,245.574,177.308,237.933,186.733,237.933z"/>
			<path style="fill:#FFEB3A;" d="M186.733,323.267h102.4c9.426,0,17.067,7.641,17.067,17.067l0,0
				c0,9.426-7.641,17.067-17.067,17.067h-102.4c-9.426,0-17.067-7.641-17.067-17.067l0,0
				C169.667,330.908,177.308,323.267,186.733,323.267z"/>
			<path style="fill:#FFEB3A;" d="M101.4,237.933h17.067c9.426,0,17.067,7.641,17.067,17.067v17.067
				c0,9.426-7.641,17.067-17.067,17.067H101.4c-9.426,0-17.067-7.641-17.067-17.067V255
				C84.333,245.574,91.974,237.933,101.4,237.933z"/>
			<path style="fill:#FFEB3A;" d="M101.4,323.267h17.067c9.426,0,17.067,7.641,17.067,17.067V357.4
				c0,9.426-7.641,17.067-17.067,17.067H101.4c-9.426,0-17.067-7.641-17.067-17.067v-17.067
				C84.333,330.908,91.974,323.267,101.4,323.267z"/>
		</g>
		<path style="fill:#4CAF50;" d="M400.067,203.8h-51.2c-18.107-0.005-35.474,7.186-48.277,19.989
			c-12.804,12.804-19.994,30.17-19.989,48.277V434.2c-0.005,18.107,7.186,35.474,19.989,48.277
			c12.804,12.804,30.17,19.994,48.277,19.989h51.2c18.107,0.005,35.474-7.186,48.277-19.989
			c12.804-12.804,19.994-30.17,19.989-48.277V272.067c0.005-18.107-7.186-35.474-19.989-48.277
			C435.54,210.986,418.174,203.795,400.067,203.8z"/>
		<path style="fill:#2E7D32;" d="M468.333,272.067V331.8h-93.867v-128h25.6c18.107-0.005,35.474,7.186,48.277,19.989
			C461.148,236.593,468.338,253.96,468.333,272.067z"/>
		<path style="fill:#4CAF50;" d="M442.733,272.067V331.8h-68.267v-128c18.107-0.005,35.474,7.186,48.277,19.989
			C435.548,236.593,442.738,253.96,442.733,272.067z"/>
		<path style="fill:#00695C;" d="M468.333,331.8v102.4c0.005,18.107-7.186,35.474-19.989,48.277
			c-12.804,12.804-30.17,19.994-48.277,19.989h-51.2c-18.107,0.005-35.474-7.186-48.277-19.989
			c-12.804-12.804-19.994-30.17-19.989-48.277V331.8H468.333z"/>
		<path style="fill:#009688;" d="M442.733,331.8v102.4c0.005,18.107-7.186,35.474-19.989,48.277
			c-12.804,12.804-30.17,19.994-48.277,19.989h-25.6c-18.107,0.005-35.474-7.186-48.277-19.989
			c-12.804-12.804-19.994-30.17-19.989-48.277V331.8H442.733z"/>
	</g>
	<g>
		<path d="M409.6,196.77V102.4c0-0.187-0.094-0.343-0.106-0.527c-0.112-2.057-0.957-4.006-2.384-5.493l-0.012-0.016L313.236,2.503
			L313.22,2.49c-0.712-0.689-1.539-1.247-2.444-1.648c-0.252-0.118-0.515-0.184-0.78-0.278c-0.734-0.258-1.5-0.413-2.277-0.46
			C307.538,0.093,307.384,0,307.2,0H59.733c-14.132,0.015-25.585,11.468-25.6,25.6v426.667c0.015,14.132,11.468,25.585,25.6,25.6
			h226.32c14.239,21.317,38.178,34.122,63.813,34.133h51.2c42.395-0.049,76.751-34.405,76.8-76.8V273.067
			C477.81,233.98,448.44,201.155,409.6,196.77z M315.733,29.133l64.733,64.733h-56.2c-4.71-0.006-8.527-3.823-8.533-8.533V29.133z
			 M59.733,460.8c-4.71-0.006-8.527-3.823-8.533-8.533V25.6c0.006-4.71,3.823-8.527,8.533-8.533h238.933v68.267
			c0.015,14.132,11.468,25.585,25.6,25.6h68.267v85.333h-42.667c-25.699,0.013-49.687,12.884-63.908,34.29
			c-0.268-0.026-0.5-0.157-0.775-0.157h-97.45c-14.111,0.066-25.534,11.489-25.6,25.6c0.015,14.132,11.468,25.585,25.6,25.6h85.333
			v34.133h-85.333c-14.111,0.066-25.534,11.489-25.6,25.6c0.015,14.132,11.468,25.585,25.6,25.6h85.333V435.2
			c0.018,8.727,1.534,17.386,4.481,25.6H59.733z M290.133,324.267v-51.2c0.037-32.974,26.759-59.696,59.733-59.733h17.067v110.933
			H290.133z M273.57,264.533h-85.837c-4.71-0.006-8.527-3.823-8.533-8.533c-0.007-2.298,0.937-4.497,2.608-6.075
			c1.558-1.592,3.698-2.479,5.925-2.458h89.815C275.569,252.983,274.234,258.71,273.57,264.533z M273.067,349.867h-85.333
			c-4.71-0.006-8.527-3.823-8.533-8.533c-0.007-2.298,0.937-4.497,2.608-6.075c1.558-1.592,3.698-2.479,5.925-2.458h85.333V349.867z
			 M401.067,494.933h-51.2c-32.974-0.037-59.696-26.759-59.733-59.733v-93.867H460.8V435.2
			C460.763,468.174,434.041,494.896,401.067,494.933z M460.8,324.267H384V213.333h17.067c32.974,0.037,59.696,26.759,59.733,59.733
			V324.267z"/>
		<path d="M119.467,59.733H102.4c-14.132,0.015-25.585,11.468-25.6,25.6V102.4c0.015,14.132,11.468,25.585,25.6,25.6h17.067
			c14.132-0.015,25.585-11.468,25.6-25.6V85.333C145.051,71.201,133.599,59.749,119.467,59.733z M128,102.4
			c-0.006,4.71-3.823,8.527-8.533,8.533H102.4c-4.71-0.006-8.527-3.823-8.533-8.533V85.333c0.006-4.71,3.823-8.527,8.533-8.533
			h17.067c4.71,0.006,8.527,3.823,8.533,8.533V102.4z"/>
		<path d="M187.733,110.933H256c14.139,0,25.6-11.462,25.6-25.6s-11.461-25.6-25.6-25.6h-68.267c-14.138,0-25.6,11.462-25.6,25.6
			S173.595,110.933,187.733,110.933z M187.733,76.8H256c4.713,0,8.533,3.821,8.533,8.533s-3.821,8.533-8.533,8.533h-68.267
			c-4.713,0-8.533-3.821-8.533-8.533S183.021,76.8,187.733,76.8z"/>
		<path d="M119.467,145.067H102.4c-14.132,0.015-25.585,11.468-25.6,25.6v17.067c0.015,14.132,11.468,25.585,25.6,25.6h17.067
			c14.132-0.015,25.585-11.468,25.6-25.6v-17.067C145.051,156.535,133.599,145.082,119.467,145.067z M128,187.733
			c-0.006,4.71-3.823,8.527-8.533,8.533H102.4c-4.71-0.006-8.527-3.823-8.533-8.533v-17.067c0.006-4.71,3.823-8.527,8.533-8.533
			h17.067c4.71,0.006,8.527,3.823,8.533,8.533V187.733z"/>
		<path d="M187.733,196.267h76.8c14.138,0,25.6-11.462,25.6-25.6c0-14.138-11.462-25.6-25.6-25.6h-76.8
			c-14.138,0-25.6,11.462-25.6,25.6C162.133,184.805,173.595,196.267,187.733,196.267z M187.733,162.133h76.8
			c4.713,0,8.533,3.821,8.533,8.533c0,4.713-3.82,8.533-8.533,8.533h-76.8c-4.713,0-8.533-3.821-8.533-8.533
			C179.2,165.954,183.021,162.133,187.733,162.133z"/>
		<path d="M119.467,230.4H102.4c-14.132,0.015-25.585,11.468-25.6,25.6v17.067c0.015,14.132,11.468,25.585,25.6,25.6h17.067
			c14.132-0.015,25.585-11.468,25.6-25.6V256C145.051,241.868,133.599,230.415,119.467,230.4z M128,273.067
			c-0.006,4.71-3.823,8.527-8.533,8.533H102.4c-4.71-0.006-8.527-3.823-8.533-8.533V256c0.006-4.71,3.823-8.527,8.533-8.533h17.067
			c4.71,0.006,8.527,3.823,8.533,8.533V273.067z"/>
		<path d="M119.467,315.733H102.4c-14.132,0.015-25.585,11.468-25.6,25.6V358.4c0.015,14.132,11.468,25.585,25.6,25.6h17.067
			c14.132-0.015,25.585-11.468,25.6-25.6v-17.067C145.051,327.201,133.599,315.749,119.467,315.733z M128,358.4
			c-0.006,4.71-3.823,8.527-8.533,8.533H102.4c-4.71-0.006-8.527-3.823-8.533-8.533v-17.067c0.006-4.71,3.823-8.527,8.533-8.533
			h17.067c4.71,0.006,8.527,3.823,8.533,8.533V358.4z"/>
	</g>
</g>
<g>
</g>
<g>
</g>
<g>
</g>
<g>
</g>
<g>
</g>
<g>
</g>
<g>
</g>
<g>
</g>
<g>
</g>
<g>
</g>
<g>
</g>
<g>
</g>
<g>
</g>
<g>
</g>
<g>
</g>
</svg>
